%TF.GenerationSoftware,Novarm,DipTrace,4.3.0.4*%
%TF.CreationDate,2023-07-19T22:18:52+01:00*%
%FSLAX26Y26*%
%MOIN*%
%TF.FileFunction,Copper,L2,Bot*%
%TF.Part,Single*%
%TA.AperFunction,Conductor*%
%ADD13C,0.009843*%
%ADD14C,0.03937*%
%TA.AperFunction,ComponentPad*%
%ADD17C,0.251969*%
%ADD20R,0.062992X0.062992*%
%ADD21C,0.062992*%
%ADD22C,0.062992*%
%ADD23R,0.051181X0.051181*%
%ADD24C,0.051181*%
%ADD25C,0.07874*%
%ADD26R,0.07874X0.181102*%
%ADD27O,0.07874X0.165354*%
%ADD28O,0.165354X0.07874*%
%ADD29R,0.056693X0.056693*%
%ADD30C,0.056693*%
%ADD31R,0.08X0.08*%
%ADD32C,0.08*%
%ADD33R,0.075X0.07874*%
%ADD34O,0.075X0.07874*%
%TA.AperFunction,ViaPad*%
%ADD35C,0.04*%
G75*
G01*
%LPD*%
X2893701Y3693701D2*
D13*
X2837992Y3637992D1*
X2238780D1*
X1794488Y3193701D1*
X3193701Y4193701D2*
X3675980D1*
X3693701Y4175980D1*
Y4056496D1*
X3244488Y1393701D2*
X3187996Y1337209D1*
Y1083665D1*
X3143701Y1039370D1*
X3743701Y3793701D2*
X3689567Y3739567D1*
Y3047835D1*
X3743701Y2993701D1*
X2293701Y3193701D2*
X2237992Y3137992D1*
X1627226D1*
X1609508Y3120276D1*
Y2152559D1*
X1591791Y2134843D1*
X1035323D1*
X1017606Y2152559D1*
Y2575984D1*
X999890Y2593701D1*
X643701D1*
X2593701Y3093701D2*
X2649409Y3037992D1*
X3422587D1*
X3666878Y2793701D1*
X3743701D1*
X3193701Y3293701D2*
X3291142Y3391142D1*
Y4020277D1*
X3273425Y4037992D1*
X2528438D1*
X2372730Y4193701D1*
X2293701D1*
X2249409Y4237992D1*
X1150102D1*
X1132386Y4220276D1*
Y2905016D1*
X1243701Y2793701D1*
X1693701Y4193701D2*
X1185535D1*
X1167819Y4175984D1*
Y3069583D1*
X1243701Y2993701D1*
X3193701Y3793701D2*
X3237992Y3837992D1*
Y3920276D1*
X3220276Y3937992D1*
X2567413D1*
X2367413Y4137992D1*
X2192831D1*
X2048539Y3993701D1*
X1693701D1*
X1203252D1*
X1185535Y3975984D1*
Y3351866D1*
X1243701Y3293701D1*
X1693701Y3893701D2*
X1302563D1*
X1284846Y3875984D1*
Y3434846D1*
X1243701Y3393701D1*
X1299925Y3060906D2*
Y2752563D1*
X1282209Y2734846D1*
X684846D1*
X643701Y2693701D1*
X2293701Y3293701D2*
X2028713D1*
X1031362Y3552563D2*
Y3281362D1*
X643701Y2893701D1*
X2293701Y3593701D2*
X2337992Y3549409D1*
Y3057677D1*
X2320276Y3039961D1*
X2060906D1*
X2043189Y3022244D1*
Y2337992D1*
X2373425D2*
Y3475980D1*
X2391146Y3493701D1*
X2593701D1*
X2293701Y3693701D2*
X1827283D1*
X2293701Y3993701D2*
X2371843D1*
X2527550Y3837992D1*
X2944315D1*
X3088606Y3693701D1*
X3193701D1*
X2154150Y3937992D2*
X2054150Y3837992D1*
X1320281D1*
X1302563Y3820276D1*
Y3252563D1*
X1243701Y3193701D1*
X3193701Y3593701D2*
X3090921D1*
X2941705Y3742917D1*
X2269091D1*
X2249406Y3762602D1*
X2229720Y3742917D1*
X1388413D1*
X1370694Y3725198D1*
Y3220694D1*
X1243701Y3093701D1*
X2249406Y3762602D2*
Y4049406D1*
X2293701Y4093701D1*
X1109256Y2534846D2*
X1388476D1*
X1406193Y2552563D1*
Y3675980D1*
X1423913Y3693701D1*
X1693701D1*
X1109256Y1933815D2*
Y1628146D1*
X1243701Y1493701D1*
X1627224Y1966610D2*
X1347760D1*
X1328075Y1946925D1*
X1308390Y1966610D1*
X567130D1*
X549413Y1984327D1*
Y2399413D1*
X643701Y2493701D1*
X2043701Y1243701D2*
Y1393780D1*
X1999488Y1437992D1*
X1345790D1*
X1328075Y1455709D1*
Y1946925D1*
X3387996Y1134177D2*
Y1499406D1*
X3343701Y1543701D1*
X1693701Y2893701D2*
X1627224Y2827224D1*
Y2032201D1*
X2143701Y1243701D2*
Y1335437D1*
X1987996Y1491142D1*
Y1740622D1*
X1837992Y1890626D1*
Y2019091D1*
X1818307Y1999406D1*
X620277D1*
X602559Y2017122D1*
Y2352559D1*
X643701Y2393701D1*
X1693701Y2793701D2*
X1737992Y2749409D1*
Y2699409D1*
X1837992Y2599409D1*
Y2019091D1*
X2593701Y2793701D2*
X2637992Y2749409D1*
Y1923303D1*
X1844217Y2769409D2*
Y2943185D1*
X1693701Y3093701D1*
X1335358Y2737992D2*
Y2652563D1*
X1317642Y2634846D1*
X602563D1*
X584846Y2617130D1*
Y2552563D1*
X602563Y2534846D1*
X684848D1*
X702563Y2517130D1*
Y2352563D1*
X643701Y2293701D1*
X3743701Y1543701D2*
X3671529Y1615873D1*
X3377004D1*
X3359287Y1633589D1*
Y1923303D1*
X2637992D2*
X2487996Y1773307D1*
Y1342941D1*
X2443701Y1298646D1*
Y1243701D1*
X1243701Y2193701D2*
X1291579Y2241579D1*
X1543917D1*
X2587996Y1499409D2*
X2543701Y1455114D1*
Y1243701D1*
X3193701Y1587996D2*
Y2693701D1*
X1543917Y2241579D2*
Y3343917D1*
X1693701Y3493701D1*
X1243701Y2293701D2*
X1184843Y2352559D1*
Y2417130D1*
X1202559Y2434846D1*
X1452098D1*
X1469818Y2452566D1*
Y3575980D1*
X1487538Y3593701D1*
X1693701D1*
X2543701Y1543701D2*
X2605713Y1605713D1*
X2670281D1*
X2687996Y1587996D1*
Y1411499D1*
X2705713Y1393783D1*
X3058937D1*
X3078622Y1413469D1*
Y2678622D1*
X3193701Y2793701D1*
X3078622Y1413469D2*
X3096339Y1395752D1*
Y995079D1*
X3114055Y977362D1*
X3270281D1*
X3287996Y995079D1*
Y1187996D1*
X3343701Y1243701D1*
X1243701Y2393701D2*
X1490764D1*
X1508484Y2411421D1*
Y3520277D1*
X1526201Y3537992D1*
X1720276D1*
X1737992Y3520276D1*
Y3433701D1*
X3193701Y2893701D2*
X3112004D1*
X3036610Y2818307D1*
X2938551D1*
X2918866Y2837992D1*
X2458598D1*
X2440882Y2855709D1*
Y3437992D1*
X2938551Y1426579D2*
Y2818307D1*
X1737992Y3433701D2*
Y3393701D1*
X1693701D1*
Y3293701D2*
X1576713Y3176713D1*
Y2492563D1*
X2143701Y1543701D2*
Y1783815D1*
X2026492Y1901024D1*
X1576713Y2492563D2*
Y2203071D1*
X1558996Y2185354D1*
X1396894D1*
X1693701Y2993701D2*
X1790046Y2897356D1*
Y2736613D1*
X1807761Y2718898D1*
X1920277D1*
X1937992Y2701181D1*
Y1886197D1*
X2043701Y1780488D1*
Y1543701D1*
X2593701Y4193701D2*
D14*
X3093701D1*
X3193701Y4093701D1*
X1193701Y1343701D2*
X1143701D1*
X693701Y1793701D1*
X2712098Y3193701D2*
D13*
X2893701D1*
X1215748Y555118D2*
X1305709Y645079D1*
Y1131693D1*
X1243701Y1193701D1*
X3143701Y543701D2*
X2858862D1*
X2841146Y561417D1*
Y942677D1*
X3893701Y2393701D2*
X3937992Y2437992D1*
Y3418110D1*
X3991732D1*
X3843701Y543701D2*
X3743701D1*
X2194488Y3193701D2*
Y3237992D1*
X2236472D1*
X3243701Y543701D2*
X3343701D1*
X3543701D2*
X3643701D1*
X2893701Y3193701D2*
X3137992Y3437992D1*
X3237992D1*
X3255709Y3455709D1*
Y3993701D1*
X3193701D1*
X2841146Y942677D2*
Y1225986D1*
X2823430Y1243701D1*
X2743701D1*
X3744488Y1393701D2*
Y1459937D1*
X3787996Y1503445D1*
Y1837996D1*
X4043701Y2093701D1*
X3743701Y543701D2*
Y702386D1*
X3788780Y747465D1*
Y1349409D1*
X3744488Y1393701D1*
X3143701Y1243701D2*
Y1443701D1*
X3243701Y1543701D1*
Y2220276D1*
X3261417Y2237992D1*
X4089966D1*
X4107681Y2255709D1*
Y2429720D1*
X4043701Y2493701D1*
X2093701Y2043701D2*
Y2675980D1*
X2111421Y2693701D1*
X2293701D1*
X1993701Y2043701D2*
X2055713Y1981689D1*
X2120277D1*
X2137992Y1999406D1*
Y2575980D1*
X2155713Y2593701D1*
X2293701D1*
X1893701Y2686102D2*
Y2043701D1*
X1793701D2*
Y2493701D1*
X1693701Y2593701D1*
X1843701Y843701D2*
Y943701D1*
X1943701Y1043701D1*
Y843701D2*
Y896496D1*
X1987992Y940787D1*
Y987992D1*
X2043701Y1043701D1*
Y843701D2*
Y943701D1*
X2143701Y1043701D1*
X2243701D2*
Y943701D1*
X2143701Y843701D1*
X2343701Y1043701D2*
Y943701D1*
X2243701Y843701D1*
X2343701D2*
X2368781Y868781D1*
Y968781D1*
X2443701Y1043701D1*
Y843701D2*
X2543701Y943701D1*
Y1043701D1*
Y843701D2*
X2643701Y943701D1*
Y1043701D1*
X3243701Y1039370D2*
Y1243701D1*
X3343701Y1039370D2*
X3443701Y1139370D1*
Y1243701D1*
X3343701Y843701D2*
X3405713Y781689D1*
X3570281D1*
X3587996Y799406D1*
Y1187996D1*
X3643701Y1243701D1*
X3543701Y843701D2*
X3487996Y899406D1*
Y1499406D1*
X3443701Y1543701D1*
X3743701Y1039370D2*
X3687996Y1095075D1*
Y1499406D1*
X3643701Y1543701D1*
X3843701Y1039370D2*
X3887996Y1083665D1*
Y1499406D1*
X3843701Y1543701D1*
X3943701Y1039370D2*
X3987996Y1083665D1*
Y1487996D1*
X4043701Y1543701D1*
X1943701Y1243701D2*
X1881697Y1181697D1*
X1755474D1*
X1737756Y1163980D1*
Y561416D1*
X1755472Y543701D1*
X1843701D1*
X1943701D2*
X1773189Y714213D1*
Y1128547D1*
X1790906Y1146264D1*
X2225984D1*
X2243701Y1163980D1*
Y1243701D1*
X2043701Y543701D2*
X1790906Y796496D1*
Y1087992D1*
X2325984D1*
X2343701Y1105709D1*
Y1243701D1*
X2873941Y754547D2*
Y1270280D1*
X2856224Y1287996D1*
X2687996D1*
X2643701Y1243701D1*
Y1543701D2*
Y1341146D1*
X2661417Y1323429D1*
X3032831D1*
X3050549Y1305713D1*
Y746291D1*
X3187992Y608848D1*
Y506655D1*
X3170276Y488937D1*
X2298465D1*
X2243701Y543701D1*
X2343701Y1543701D2*
X2387996Y1499406D1*
Y1181693D1*
X2405713Y1163976D1*
X2780748D1*
X2798465Y1146260D1*
Y725165D1*
X2780748Y707449D1*
X2507449D1*
X2343701Y543701D1*
X2924453Y662492D2*
Y1287996D1*
X2906736Y1305713D1*
X2605713D1*
X2587996Y1287996D1*
Y1217126D1*
X2570280Y1199409D1*
X2505714D1*
X2487996Y1217126D1*
Y1287996D1*
X1728764Y1473425D2*
X1873425D1*
X1943701Y1543701D1*
X3193701Y3193701D2*
X3298427D1*
X3654134Y2837992D1*
X3770280D1*
X3787996Y2820276D1*
Y2311417D1*
X3805713Y2293701D1*
X4043701D1*
X2481673Y2937992D2*
X3299409D1*
X3743701Y2493701D1*
X2293701Y2293701D2*
X2390370D1*
X2408087Y2311417D1*
Y2649409D1*
Y3453071D1*
X2425803Y3470787D1*
X2513974D1*
X2531689Y3453071D1*
Y3155709D1*
X2549406Y3137992D1*
X2937992D1*
X3193701Y3393701D1*
X1471654Y732283D2*
Y1225984D1*
X1489370Y1243701D1*
X1843701D1*
X1905713Y1305713D1*
X1970281D1*
X1987996Y1287996D1*
Y1217125D1*
X2005713Y1199409D1*
X2170280D1*
X2187996Y1217126D1*
Y1956689D1*
X2237992Y2006685D1*
Y2522244D1*
X2255709Y2539961D1*
X2320276D1*
X2337992Y2557677D1*
Y2749409D1*
X2293701Y2793701D1*
X3193701Y3893701D2*
X3149406Y3849406D1*
Y3755709D1*
X3167122Y3737992D1*
X3220276D1*
X3237992Y3720276D1*
Y3555709D1*
X3220276Y3537992D1*
X2373425D1*
X2355709Y3520276D1*
Y2455709D1*
X2293701Y2393701D1*
D35*
X1299925Y3060906D3*
X2028713Y3293701D3*
X1031362Y3552563D3*
X2043189Y2337992D3*
X2373425D3*
X1827283Y3693701D3*
X2154150Y3937992D3*
X1109256Y2534846D3*
Y1933815D3*
X3387996Y1134177D3*
X1627224Y2032201D3*
Y1966610D3*
X1844217Y2769409D3*
X1335358Y2737992D3*
X2637992Y1923303D3*
X3359287D3*
X1543917Y2241579D3*
X2587996Y1499409D3*
X3193701Y1587996D3*
X2440882Y3437992D3*
X1737992Y3433701D3*
X2938551Y1426579D3*
X1576713Y2492563D3*
X1396894Y2185354D3*
X2026492Y1901024D3*
X2841146Y942677D3*
X2712098Y3193701D3*
X2236472Y3237992D3*
X1893701Y2686102D3*
X2873941Y754547D3*
X2487996Y1287996D3*
X2924453Y662492D3*
X1728764Y1473425D3*
X2481673Y2937992D3*
X2408087Y2649409D3*
D17*
X4143701Y4143701D3*
D20*
X3143701Y543701D3*
D21*
X3243701D3*
X3343701D3*
X3443701D3*
X3543701D3*
X3643701D3*
X3743701D3*
X3843701D3*
Y843701D3*
X3743701D3*
X3643701D3*
X3543701D3*
X3443701D3*
X3343701D3*
X3243701D3*
X3143701D3*
D22*
X2893701Y3693701D3*
Y3193701D3*
D23*
X993701Y643701D3*
D24*
X943701Y593701D3*
X893701Y643701D3*
D20*
X2593701Y4193701D3*
D21*
Y4093701D3*
Y3993701D3*
Y3893701D3*
Y3793701D3*
Y3693701D3*
Y3593701D3*
Y3493701D3*
Y3393701D3*
Y3293701D3*
Y3193701D3*
Y3093701D3*
Y2993701D3*
Y2893701D3*
Y2793701D3*
Y2693701D3*
X3193701D3*
Y2793701D3*
Y2893701D3*
Y2993701D3*
Y3093701D3*
Y3193701D3*
Y3293701D3*
Y3393701D3*
Y3493701D3*
Y3593701D3*
Y3693701D3*
Y3793701D3*
Y3893701D3*
Y3993701D3*
Y4093701D3*
Y4193701D3*
D22*
X3743701Y3793701D3*
X3645276D3*
X1794488Y3193701D3*
X2194488D3*
D25*
X1215748Y732283D3*
X1471654D3*
X1215748Y555118D3*
X1471654D3*
D17*
X4143701Y543701D3*
X543701Y4143701D3*
D20*
X2193701Y2043701D3*
D21*
X2093701D3*
X1993701D3*
X1893701D3*
X1793701D3*
D22*
X3893701Y2893701D3*
Y2393701D3*
D20*
X643701Y1193701D3*
D22*
X1243701D3*
Y1493701D3*
X643701D3*
D20*
X3143701Y1243701D3*
D21*
X3243701D3*
X3343701D3*
X3443701D3*
X3543701D3*
X3643701D3*
X3743701D3*
X3843701D3*
X3943701D3*
X4043701D3*
Y1543701D3*
X3943701D3*
X3843701D3*
X3743701D3*
X3643701D3*
X3543701D3*
X3443701D3*
X3343701D3*
X3243701D3*
X3143701D3*
D26*
X3743701Y3418110D3*
D27*
X3991732D3*
D28*
X3857874Y3607087D3*
D20*
X1693701Y4193701D3*
D21*
Y4093701D3*
Y3993701D3*
Y3893701D3*
Y3793701D3*
Y3693701D3*
Y3593701D3*
Y3493701D3*
Y3393701D3*
Y3293701D3*
Y3193701D3*
Y3093701D3*
Y2993701D3*
Y2893701D3*
Y2793701D3*
Y2693701D3*
Y2593701D3*
Y2493701D3*
Y2393701D3*
Y2293701D3*
X2293701D3*
Y2393701D3*
Y2493701D3*
Y2593701D3*
Y2693701D3*
Y2793701D3*
Y2893701D3*
Y2993701D3*
Y3093701D3*
Y3193701D3*
Y3293701D3*
Y3393701D3*
Y3493701D3*
Y3593701D3*
Y3693701D3*
Y3793701D3*
Y3893701D3*
Y3993701D3*
Y4093701D3*
Y4193701D3*
D22*
X3244488Y1393701D3*
X3744488D3*
D29*
X643701Y3493701D3*
D30*
Y3393701D3*
Y3293701D3*
Y3193701D3*
Y3093701D3*
Y2993701D3*
Y2893701D3*
Y2793701D3*
Y2693701D3*
Y2593701D3*
Y2493701D3*
Y2393701D3*
Y2293701D3*
Y2193701D3*
X1243701D3*
Y2293701D3*
Y2393701D3*
Y2493701D3*
Y2593701D3*
Y2693701D3*
Y2793701D3*
Y2893701D3*
Y2993701D3*
Y3093701D3*
Y3193701D3*
Y3293701D3*
Y3393701D3*
Y3493701D3*
D22*
X693701Y1343701D3*
X1193701D3*
X1943701Y1393701D3*
X2443701D3*
X1193701Y1793701D3*
X693701D3*
D20*
X1843701Y1243701D3*
D21*
X1943701D3*
X2043701D3*
X2143701D3*
X2243701D3*
X2343701D3*
X2443701D3*
X2543701D3*
X2643701D3*
X2743701D3*
Y1543701D3*
X2643701D3*
X2543701D3*
X2443701D3*
X2343701D3*
X2243701D3*
X2143701D3*
X2043701D3*
X1943701D3*
X1843701D3*
D20*
X3414961Y3793701D3*
D22*
X3493701D3*
D20*
X3143701Y1039370D3*
D21*
X3243701D3*
X3343701D3*
X3443701D3*
X3543701D3*
X3643701D3*
X3743701D3*
X3843701D3*
X3943701D3*
D31*
X1843701Y543701D3*
D32*
X1943701D3*
X2043701D3*
X2143701D3*
X2243701D3*
X2343701D3*
X2443701D3*
X2543701D3*
X2643701D3*
X2743701D3*
Y843701D3*
X2643701D3*
X2543701D3*
X2443701D3*
X2343701D3*
X2243701D3*
X2143701D3*
X2043701D3*
X1943701D3*
X1843701D3*
D20*
Y1043701D3*
D21*
X1943701D3*
X2043701D3*
X2143701D3*
X2243701D3*
X2343701D3*
X2443701D3*
X2543701D3*
X2643701D3*
D20*
X3743701Y2993701D3*
D21*
Y2893701D3*
Y2793701D3*
Y2693701D3*
Y2593701D3*
Y2493701D3*
Y2393701D3*
Y2293701D3*
Y2193701D3*
Y2093701D3*
X4043701D3*
Y2193701D3*
Y2293701D3*
Y2393701D3*
Y2493701D3*
Y2593701D3*
Y2693701D3*
Y2793701D3*
Y2893701D3*
Y2993701D3*
D17*
X543701Y543701D3*
D33*
X3493701Y4056496D3*
D34*
X3593701D3*
X3693701D3*
M02*
