%TF.GenerationSoftware,Novarm,DipTrace,4.3.0.4*%
%TF.CreationDate,2023-07-19T19:22:10+01:00*%
%FSLAX26Y26*%
%MOIN*%
%TF.FileFunction,Soldermask,Bot*%
%TF.Part,Single*%
%ADD42O,0.078937X0.082677*%
%ADD44R,0.078937X0.082677*%
%ADD46C,0.083937*%
%ADD48R,0.083937X0.083937*%
%ADD50C,0.06063*%
%ADD52R,0.06063X0.06063*%
%ADD54O,0.082677X0.169291*%
%ADD56O,0.169291X0.082677*%
%ADD58R,0.185039X0.082677*%
%ADD60C,0.082677*%
%ADD62C,0.055118*%
%ADD64R,0.055118X0.055118*%
%ADD66C,0.066929*%
%ADD68C,0.066929*%
%ADD70R,0.066929X0.066929*%
G75*
G01*
%LPD*%
D70*
X3143701Y543701D3*
D68*
X3243701D3*
X3343701D3*
X3443701D3*
X3543701D3*
X3643701D3*
X3743701D3*
X3843701D3*
Y843701D3*
X3743701D3*
X3643701D3*
X3543701D3*
X3443701D3*
X3343701D3*
X3243701D3*
X3143701D3*
D66*
X2893701Y3693701D3*
Y3193701D3*
D64*
X843701Y693701D3*
D62*
X893701Y743701D3*
X943701Y693701D3*
D70*
X2593701Y4193701D3*
D68*
Y4093701D3*
Y3993701D3*
Y3893701D3*
Y3793701D3*
Y3693701D3*
Y3593701D3*
Y3493701D3*
Y3393701D3*
Y3293701D3*
Y3193701D3*
Y3093701D3*
Y2993701D3*
Y2893701D3*
Y2793701D3*
Y2693701D3*
X3193701D3*
Y2793701D3*
Y2893701D3*
Y2993701D3*
Y3093701D3*
Y3193701D3*
Y3293701D3*
Y3393701D3*
Y3493701D3*
Y3593701D3*
Y3693701D3*
Y3793701D3*
Y3893701D3*
Y3993701D3*
Y4093701D3*
Y4193701D3*
D66*
X3743701Y3793701D3*
X3645276D3*
X1794488Y3193701D3*
X2194488D3*
D60*
X1187795Y793701D3*
X1443701D3*
X1187795Y616535D3*
X1443701D3*
D70*
X2193701Y2043701D3*
D68*
X2093701D3*
X1993701D3*
X1893701D3*
X1793701D3*
D66*
X3243701Y2093701D3*
X3743701D3*
D70*
X793701Y1243701D3*
D66*
X1393701D3*
Y1543701D3*
X793701D3*
D70*
X3143701Y1243701D3*
D68*
X3243701D3*
X3343701D3*
X3443701D3*
X3543701D3*
X3643701D3*
X3743701D3*
X3843701D3*
X3943701D3*
X4043701D3*
Y1543701D3*
X3943701D3*
X3843701D3*
X3743701D3*
X3643701D3*
X3543701D3*
X3443701D3*
X3343701D3*
X3243701D3*
X3143701D3*
D58*
X4082677Y3729528D3*
D56*
Y3977559D3*
D54*
X3893701Y3843701D3*
D70*
X1693701Y4193701D3*
D68*
Y4093701D3*
Y3993701D3*
Y3893701D3*
Y3793701D3*
Y3693701D3*
Y3593701D3*
Y3493701D3*
Y3393701D3*
Y3293701D3*
Y3193701D3*
Y3093701D3*
Y2993701D3*
Y2893701D3*
Y2793701D3*
Y2693701D3*
Y2593701D3*
Y2493701D3*
Y2393701D3*
Y2293701D3*
X2293701D3*
Y2393701D3*
Y2493701D3*
Y2593701D3*
Y2693701D3*
Y2793701D3*
Y2893701D3*
Y2993701D3*
Y3093701D3*
Y3193701D3*
Y3293701D3*
Y3393701D3*
Y3493701D3*
Y3593701D3*
Y3693701D3*
Y3793701D3*
Y3893701D3*
Y3993701D3*
Y4093701D3*
Y4193701D3*
D66*
X3244488Y1393701D3*
X3744488D3*
D52*
X643701Y3793701D3*
D50*
Y3693701D3*
Y3593701D3*
Y3493701D3*
Y3393701D3*
Y3293701D3*
Y3193701D3*
Y3093701D3*
Y2993701D3*
Y2893701D3*
Y2793701D3*
Y2693701D3*
Y2593701D3*
Y2493701D3*
X1243701D3*
Y2593701D3*
Y2693701D3*
Y2793701D3*
Y2893701D3*
Y2993701D3*
Y3093701D3*
Y3193701D3*
Y3293701D3*
Y3393701D3*
Y3493701D3*
Y3593701D3*
Y3693701D3*
Y3793701D3*
D66*
X843701Y1393701D3*
X1343701D3*
X1943701D3*
X2443701D3*
X1193701Y2093701D3*
X693701D3*
D70*
X1843701Y1243701D3*
D68*
X1943701D3*
X2043701D3*
X2143701D3*
X2243701D3*
X2343701D3*
X2443701D3*
X2543701D3*
X2643701D3*
X2743701D3*
Y1543701D3*
X2643701D3*
X2543701D3*
X2443701D3*
X2343701D3*
X2243701D3*
X2143701D3*
X2043701D3*
X1943701D3*
X1843701D3*
D70*
X3414961Y3793701D3*
D66*
X3493701D3*
D70*
X3143701Y1039370D3*
D68*
X3243701D3*
X3343701D3*
X3443701D3*
X3543701D3*
X3643701D3*
X3743701D3*
X3843701D3*
X3943701D3*
D48*
X1843701Y543701D3*
D46*
X1943701D3*
X2043701D3*
X2143701D3*
X2243701D3*
X2343701D3*
X2443701D3*
X2543701D3*
X2643701D3*
X2743701D3*
Y843701D3*
X2643701D3*
X2543701D3*
X2443701D3*
X2343701D3*
X2243701D3*
X2143701D3*
X2043701D3*
X1943701D3*
X1843701D3*
D70*
Y1043701D3*
D68*
X1943701D3*
X2043701D3*
X2143701D3*
X2243701D3*
X2343701D3*
X2443701D3*
X2543701D3*
X2643701D3*
D70*
X3143701Y1943701D3*
D68*
X3243701D3*
X3343701D3*
X3443701D3*
X3543701D3*
X3643701D3*
X3743701D3*
X3843701D3*
X3943701D3*
X4043701D3*
Y2243701D3*
X3943701D3*
X3843701D3*
X3743701D3*
X3643701D3*
X3543701D3*
X3443701D3*
X3343701D3*
X3243701D3*
X3143701D3*
D44*
X3493701Y4056496D3*
D42*
X3593701D3*
X3693701D3*
M02*
