%TF.GenerationSoftware,Novarm,DipTrace,4.3.0.4*%
%TF.CreationDate,2023-07-19T22:18:55+01:00*%
%FSLAX26Y26*%
%MOIN*%
%TF.FileFunction,Plated,1,2,PTH,Drill*%
%TF.Part,Single*%
%TA.AperFunction,ComponentDrill*%
%ADD14C,0.03937*%
%TA.AperFunction,ViaDrill*%
%ADD35C,0.019121*%
%TA.AperFunction,ComponentDrill*%
%ADD36C,0.125984*%
%ADD37C,0.031496*%
%ADD38C,0.029528*%
%ADD39C,0.043307*%
%ADD40C,0.036*%
G75*
G01*
D36*
X4143701Y4143701D3*
D37*
X3143701Y543701D3*
X3243701D3*
X3343701D3*
X3443701D3*
X3543701D3*
X3643701D3*
X3743701D3*
X3843701D3*
Y843701D3*
X3743701D3*
X3643701D3*
X3543701D3*
X3443701D3*
X3343701D3*
X3243701D3*
X3143701D3*
X2893701Y3693701D3*
Y3193701D3*
D38*
X993701Y643701D3*
X943701Y593701D3*
X893701Y643701D3*
D37*
X2593701Y4193701D3*
Y4093701D3*
Y3993701D3*
Y3893701D3*
Y3793701D3*
Y3693701D3*
Y3593701D3*
Y3493701D3*
Y3393701D3*
Y3293701D3*
Y3193701D3*
Y3093701D3*
Y2993701D3*
Y2893701D3*
Y2793701D3*
Y2693701D3*
X3193701D3*
Y2793701D3*
Y2893701D3*
Y2993701D3*
Y3093701D3*
Y3193701D3*
Y3293701D3*
Y3393701D3*
Y3493701D3*
Y3593701D3*
Y3693701D3*
Y3793701D3*
Y3893701D3*
Y3993701D3*
Y4093701D3*
Y4193701D3*
X3743701Y3793701D3*
X3645276D3*
X1794488Y3193701D3*
X2194488D3*
D39*
X1215748Y732283D3*
X1471654D3*
X1215748Y555118D3*
X1471654D3*
D36*
X4143701Y543701D3*
X543701Y4143701D3*
D37*
X2193701Y2043701D3*
X2093701D3*
X1993701D3*
X1893701D3*
X1793701D3*
X3893701Y2893701D3*
Y2393701D3*
X643701Y1193701D3*
X1243701D3*
Y1493701D3*
X643701D3*
X3143701Y1243701D3*
X3243701D3*
X3343701D3*
X3443701D3*
X3543701D3*
X3643701D3*
X3743701D3*
X3843701D3*
X3943701D3*
X4043701D3*
Y1543701D3*
X3943701D3*
X3843701D3*
X3743701D3*
X3643701D3*
X3543701D3*
X3443701D3*
X3343701D3*
X3243701D3*
X3143701D3*
X3743701Y3469291D2*
D14*
Y3366929D1*
X3991732Y3461417D2*
Y3374803D1*
X3901181Y3607087D2*
X3814567D1*
D37*
X1693701Y4193701D3*
Y4093701D3*
Y3993701D3*
Y3893701D3*
Y3793701D3*
Y3693701D3*
Y3593701D3*
Y3493701D3*
Y3393701D3*
Y3293701D3*
Y3193701D3*
Y3093701D3*
Y2993701D3*
Y2893701D3*
Y2793701D3*
Y2693701D3*
Y2593701D3*
Y2493701D3*
Y2393701D3*
Y2293701D3*
X2293701D3*
Y2393701D3*
Y2493701D3*
Y2593701D3*
Y2693701D3*
Y2793701D3*
Y2893701D3*
Y2993701D3*
Y3093701D3*
Y3193701D3*
Y3293701D3*
Y3393701D3*
Y3493701D3*
Y3593701D3*
Y3693701D3*
Y3793701D3*
Y3893701D3*
Y3993701D3*
Y4093701D3*
Y4193701D3*
X3244488Y1393701D3*
X3744488D3*
D14*
X643701Y3493701D3*
Y3393701D3*
Y3293701D3*
Y3193701D3*
Y3093701D3*
Y2993701D3*
Y2893701D3*
Y2793701D3*
Y2693701D3*
Y2593701D3*
Y2493701D3*
Y2393701D3*
Y2293701D3*
Y2193701D3*
X1243701D3*
Y2293701D3*
Y2393701D3*
Y2493701D3*
Y2593701D3*
Y2693701D3*
Y2793701D3*
Y2893701D3*
Y2993701D3*
Y3093701D3*
Y3193701D3*
Y3293701D3*
Y3393701D3*
Y3493701D3*
D37*
X693701Y1343701D3*
X1193701D3*
X1943701Y1393701D3*
X2443701D3*
X1193701Y1793701D3*
X693701D3*
X1843701Y1243701D3*
X1943701D3*
X2043701D3*
X2143701D3*
X2243701D3*
X2343701D3*
X2443701D3*
X2543701D3*
X2643701D3*
X2743701D3*
Y1543701D3*
X2643701D3*
X2543701D3*
X2443701D3*
X2343701D3*
X2243701D3*
X2143701D3*
X2043701D3*
X1943701D3*
X1843701D3*
X3414961Y3793701D3*
X3493701D3*
X3143701Y1039370D3*
X3243701D3*
X3343701D3*
X3443701D3*
X3543701D3*
X3643701D3*
X3743701D3*
X3843701D3*
X3943701D3*
D40*
X1843701Y543701D3*
X1943701D3*
X2043701D3*
X2143701D3*
X2243701D3*
X2343701D3*
X2443701D3*
X2543701D3*
X2643701D3*
X2743701D3*
Y843701D3*
X2643701D3*
X2543701D3*
X2443701D3*
X2343701D3*
X2243701D3*
X2143701D3*
X2043701D3*
X1943701D3*
X1843701D3*
D37*
Y1043701D3*
X1943701D3*
X2043701D3*
X2143701D3*
X2243701D3*
X2343701D3*
X2443701D3*
X2543701D3*
X2643701D3*
X3743701Y2993701D3*
Y2893701D3*
Y2793701D3*
Y2693701D3*
Y2593701D3*
Y2493701D3*
Y2393701D3*
Y2293701D3*
Y2193701D3*
Y2093701D3*
X4043701D3*
Y2193701D3*
Y2293701D3*
Y2393701D3*
Y2493701D3*
Y2593701D3*
Y2693701D3*
Y2793701D3*
Y2893701D3*
Y2993701D3*
D36*
X543701Y543701D3*
D39*
X3493701Y4056496D3*
X3593701D3*
X3693701D3*
D35*
X1299925Y3060906D3*
X2028713Y3293701D3*
X1031362Y3552563D3*
X2043189Y2337992D3*
X2373425D3*
X1827283Y3693701D3*
X2154150Y3937992D3*
X1109256Y2534846D3*
Y1933815D3*
X3387996Y1134177D3*
X1627224Y2032201D3*
Y1966610D3*
X1844217Y2769409D3*
X1335358Y2737992D3*
X2637992Y1923303D3*
X3359287D3*
X1543917Y2241579D3*
X2587996Y1499409D3*
X3193701Y1587996D3*
X2440882Y3437992D3*
X1737992Y3433701D3*
X2938551Y1426579D3*
X1576713Y2492563D3*
X1396894Y2185354D3*
X2026492Y1901024D3*
X2841146Y942677D3*
X2712098Y3193701D3*
X2236472Y3237992D3*
X1893701Y2686102D3*
X2873941Y754547D3*
X2487996Y1287996D3*
X2924453Y662492D3*
X1728764Y1473425D3*
X2481673Y2937992D3*
X2408087Y2649409D3*
M02*
