M48
INCH
T01C0.0191
T02C0.0295
T03C0.0315
T04C0.036
T05C0.0394
T06C0.0433
T07C0.126
%
T01
X+012999Y+030609
X+013354Y+027380
X+011093Y+025348
X+013969Y+021854
X+015439Y+022416
X+016272Y+020322
X+016272Y+019666
X+020265Y+019010
X+020432Y+023380
X+023734Y+023380
X+024081Y+026494
X+024817Y+029380
X+027121Y+031937
X+024409Y+034380
X+022365Y+032380
X+020287Y+032937
X+017380Y+034337
X+018273Y+036937
X+021541Y+039380
X+010314Y+035526
X+018442Y+027694
X+018937Y+026861
X+015767Y+024926
X+011093Y+019338
X+017288Y+014734
X+024880Y+012880
X+025880Y+014994
X+029386Y+014266
X+031937Y+015880
X+033593Y+019233
X+026380Y+019233
X+028411Y+009427
X+028739Y+007545
X+029245Y+006625
X+033880Y+011342
T02
X+009937Y+006437
X+009437Y+005937
X+008937Y+006437
T03
X+031437Y+005437
X+032437Y+005437
X+033437Y+005437
X+034437Y+005437
X+035437Y+005437
X+036437Y+005437
X+037437Y+005437
X+038437Y+005437
X+038437Y+008437
X+037437Y+008437
X+036437Y+008437
X+035437Y+008437
X+034437Y+008437
X+033437Y+008437
X+032437Y+008437
X+031437Y+008437
X+031437Y+010394
X+032437Y+010394
X+033437Y+010394
X+034437Y+010394
X+035437Y+010394
X+036437Y+010394
X+037437Y+010394
X+038437Y+010394
X+039437Y+010394
X+039437Y+012437
X+040437Y+012437
X+038437Y+012437
X+037437Y+012437
X+036437Y+012437
X+035437Y+012437
X+034437Y+012437
X+033437Y+012437
X+032437Y+012437
X+031437Y+012437
X+032445Y+013937
X+032437Y+015437
X+031437Y+015437
X+033437Y+015437
X+034437Y+015437
X+035437Y+015437
X+036437Y+015437
X+037437Y+015437
X+038437Y+015437
X+039437Y+015437
X+040437Y+015437
X+037445Y+013937
X+037437Y+020937
X+037437Y+021937
X+037437Y+022937
X+037437Y+023937
X+037437Y+024937
X+037437Y+025937
X+037437Y+026937
X+037437Y+027937
X+037437Y+028937
X+037437Y+029937
X+038937Y+028937
X+040437Y+028937
X+040437Y+029937
X+040437Y+027937
X+040437Y+026937
X+040437Y+025937
X+040437Y+024937
X+040437Y+023937
X+040437Y+022937
X+040437Y+021937
X+040437Y+020937
X+038937Y+023937
X+031937Y+026937
X+031937Y+027937
X+031937Y+028937
X+031937Y+029937
X+031937Y+030937
X+031937Y+031937
X+031937Y+032937
X+031937Y+033937
X+031937Y+034937
X+031937Y+035937
X+031937Y+036937
X+031937Y+037937
X+031937Y+038937
X+031937Y+039937
X+031937Y+040937
X+031937Y+041937
X+034150Y+037937
X+034937Y+037937
X+036453Y+037937
X+037437Y+037937
X+028937Y+036937
X+025937Y+036937
X+025937Y+035937
X+025937Y+034937
X+025937Y+033937
X+025937Y+032937
X+025937Y+031937
X+025937Y+030937
X+025937Y+029937
X+025937Y+028937
X+025937Y+027937
X+025937Y+026937
X+022937Y+026937
X+022937Y+027937
X+022937Y+028937
X+022937Y+029937
X+022937Y+030937
X+022937Y+031937
X+021945Y+031937
X+022937Y+032937
X+022937Y+033937
X+022937Y+034937
X+022937Y+035937
X+022937Y+036937
X+022937Y+037937
X+022937Y+038937
X+022937Y+039937
X+022937Y+040937
X+022937Y+041937
X+025937Y+041937
X+025937Y+040937
X+025937Y+039937
X+025937Y+038937
X+025937Y+037937
X+028937Y+031937
X+022937Y+025937
X+022937Y+024937
X+022937Y+023937
X+022937Y+022937
X+021937Y+020437
X+020937Y+020437
X+019937Y+020437
X+018937Y+020437
X+017937Y+020437
X+016937Y+022937
X+016937Y+023937
X+016937Y+024937
X+016937Y+025937
X+016937Y+026937
X+016937Y+027937
X+016937Y+028937
X+016937Y+029937
X+016937Y+030937
X+016937Y+031937
X+016937Y+032937
X+016937Y+033937
X+016937Y+034937
X+016937Y+035937
X+016937Y+036937
X+016937Y+037937
X+016937Y+038937
X+016937Y+039937
X+016937Y+040937
X+016937Y+041937
X+017945Y+031937
X+011937Y+017937
X+012437Y+014937
X+011937Y+013437
X+012437Y+011937
X+006937Y+013437
X+006437Y+014937
X+006437Y+011937
X+006937Y+017937
X+018437Y+015437
X+019437Y+015437
X+020437Y+015437
X+021437Y+015437
X+022437Y+015437
X+023437Y+015437
X+024437Y+015437
X+025437Y+015437
X+026437Y+015437
X+027437Y+015437
X+027437Y+012437
X+026437Y+012437
X+025437Y+012437
X+024437Y+012437
X+023437Y+012437
X+022437Y+012437
X+021437Y+012437
X+020437Y+012437
X+019437Y+012437
X+018437Y+012437
X+019437Y+013937
X+019437Y+010437
X+018437Y+010437
X+020437Y+010437
X+021437Y+010437
X+022437Y+010437
X+023437Y+010437
X+024437Y+010437
X+025437Y+010437
X+026437Y+010437
X+024437Y+013937
T04
X+018437Y+005437
X+019437Y+005437
X+020437Y+005437
X+021437Y+005437
X+022437Y+005437
X+023437Y+005437
X+024437Y+005437
X+025437Y+005437
X+026437Y+005437
X+027437Y+005437
X+027437Y+008437
X+026437Y+008437
X+025437Y+008437
X+024437Y+008437
X+023437Y+008437
X+022437Y+008437
X+021437Y+008437
X+020437Y+008437
X+019437Y+008437
X+018437Y+008437
T05
X+012437Y+033937
X+012437Y+034937
X+012437Y+032937
X+012437Y+031937
X+012437Y+030937
X+012437Y+029937
X+012437Y+028937
X+012437Y+027937
X+012437Y+026937
X+012437Y+025937
X+012437Y+024937
X+012437Y+023937
X+012437Y+022937
X+012437Y+021937
X+006437Y+021937
X+006437Y+022937
X+006437Y+023937
X+006437Y+024937
X+006437Y+025937
X+006437Y+026937
X+006437Y+027937
X+006437Y+028937
X+006437Y+029937
X+006437Y+030937
X+006437Y+031937
X+006437Y+032937
X+006437Y+033937
X+006437Y+034937
T06
X+012157Y+007323
X+012157Y+005551
X+014717Y+005551
X+014717Y+007323
X+034937Y+040565
X+035937Y+040565
X+036937Y+040565
T07
X+041437Y+041437
X+041437Y+005437
X+005437Y+005437
X+005437Y+041437
T00
M30
