%TF.GenerationSoftware,Novarm,DipTrace,4.3.0.4*%
%TF.CreationDate,2023-07-19T19:22:20+01:00*%
%FSLAX26Y26*%
%MOIN*%
%TF.FileFunction,Plated,1,2,PTH,Drill*%
%TF.Part,Single*%
%TA.AperFunction,ComponentDrill*%
%ADD13C,0.03937*%
%TA.AperFunction,ViaDrill*%
%ADD33C,0.019121*%
%TA.AperFunction,ComponentDrill*%
%ADD34C,0.031496*%
%ADD35C,0.029528*%
%ADD36C,0.043307*%
%ADD37C,0.036*%
G75*
G01*
D34*
X3143701Y543701D3*
X3243701D3*
X3343701D3*
X3443701D3*
X3543701D3*
X3643701D3*
X3743701D3*
X3843701D3*
Y843701D3*
X3743701D3*
X3643701D3*
X3543701D3*
X3443701D3*
X3343701D3*
X3243701D3*
X3143701D3*
X2893701Y3693701D3*
Y3193701D3*
D35*
X843701Y693701D3*
X893701Y743701D3*
X943701Y693701D3*
D34*
X2593701Y4193701D3*
Y4093701D3*
Y3993701D3*
Y3893701D3*
Y3793701D3*
Y3693701D3*
Y3593701D3*
Y3493701D3*
Y3393701D3*
Y3293701D3*
Y3193701D3*
Y3093701D3*
Y2993701D3*
Y2893701D3*
Y2793701D3*
Y2693701D3*
X3193701D3*
Y2793701D3*
Y2893701D3*
Y2993701D3*
Y3093701D3*
Y3193701D3*
Y3293701D3*
Y3393701D3*
Y3493701D3*
Y3593701D3*
Y3693701D3*
Y3793701D3*
Y3893701D3*
Y3993701D3*
Y4093701D3*
Y4193701D3*
X3743701Y3793701D3*
X3645276D3*
X1794488Y3193701D3*
X2194488D3*
D36*
X1187795Y793701D3*
X1443701D3*
X1187795Y616535D3*
X1443701D3*
D34*
X2193701Y2043701D3*
X2093701D3*
X1993701D3*
X1893701D3*
X1793701D3*
X3243701Y2093701D3*
X3743701D3*
X793701Y1243701D3*
X1393701D3*
Y1543701D3*
X793701D3*
X3143701Y1243701D3*
X3243701D3*
X3343701D3*
X3443701D3*
X3543701D3*
X3643701D3*
X3743701D3*
X3843701D3*
X3943701D3*
X4043701D3*
Y1543701D3*
X3943701D3*
X3843701D3*
X3743701D3*
X3643701D3*
X3543701D3*
X3443701D3*
X3343701D3*
X3243701D3*
X3143701D3*
X4031496Y3729528D2*
D13*
X4133858D1*
X4039370Y3977559D2*
X4125984D1*
X3893701Y3887008D2*
Y3800394D1*
D34*
X1693701Y4193701D3*
Y4093701D3*
Y3993701D3*
Y3893701D3*
Y3793701D3*
Y3693701D3*
Y3593701D3*
Y3493701D3*
Y3393701D3*
Y3293701D3*
Y3193701D3*
Y3093701D3*
Y2993701D3*
Y2893701D3*
Y2793701D3*
Y2693701D3*
Y2593701D3*
Y2493701D3*
Y2393701D3*
Y2293701D3*
X2293701D3*
Y2393701D3*
Y2493701D3*
Y2593701D3*
Y2693701D3*
Y2793701D3*
Y2893701D3*
Y2993701D3*
Y3093701D3*
Y3193701D3*
Y3293701D3*
Y3393701D3*
Y3493701D3*
Y3593701D3*
Y3693701D3*
Y3793701D3*
Y3893701D3*
Y3993701D3*
Y4093701D3*
Y4193701D3*
X3244488Y1393701D3*
X3744488D3*
D13*
X643701Y3793701D3*
Y3693701D3*
Y3593701D3*
Y3493701D3*
Y3393701D3*
Y3293701D3*
Y3193701D3*
Y3093701D3*
Y2993701D3*
Y2893701D3*
Y2793701D3*
Y2693701D3*
Y2593701D3*
Y2493701D3*
X1243701D3*
Y2593701D3*
Y2693701D3*
Y2793701D3*
Y2893701D3*
Y2993701D3*
Y3093701D3*
Y3193701D3*
Y3293701D3*
Y3393701D3*
Y3493701D3*
Y3593701D3*
Y3693701D3*
Y3793701D3*
D34*
X843701Y1393701D3*
X1343701D3*
X1943701D3*
X2443701D3*
X1193701Y2093701D3*
X693701D3*
X1843701Y1243701D3*
X1943701D3*
X2043701D3*
X2143701D3*
X2243701D3*
X2343701D3*
X2443701D3*
X2543701D3*
X2643701D3*
X2743701D3*
Y1543701D3*
X2643701D3*
X2543701D3*
X2443701D3*
X2343701D3*
X2243701D3*
X2143701D3*
X2043701D3*
X1943701D3*
X1843701D3*
X3414961Y3793701D3*
X3493701D3*
X3143701Y1039370D3*
X3243701D3*
X3343701D3*
X3443701D3*
X3543701D3*
X3643701D3*
X3743701D3*
X3843701D3*
X3943701D3*
D37*
X1843701Y543701D3*
X1943701D3*
X2043701D3*
X2143701D3*
X2243701D3*
X2343701D3*
X2443701D3*
X2543701D3*
X2643701D3*
X2743701D3*
Y843701D3*
X2643701D3*
X2543701D3*
X2443701D3*
X2343701D3*
X2243701D3*
X2143701D3*
X2043701D3*
X1943701D3*
X1843701D3*
D34*
Y1043701D3*
X1943701D3*
X2043701D3*
X2143701D3*
X2243701D3*
X2343701D3*
X2443701D3*
X2543701D3*
X2643701D3*
X3143701Y1943701D3*
X3243701D3*
X3343701D3*
X3443701D3*
X3543701D3*
X3643701D3*
X3743701D3*
X3843701D3*
X3943701D3*
X4043701D3*
Y2243701D3*
X3943701D3*
X3843701D3*
X3743701D3*
X3643701D3*
X3543701D3*
X3443701D3*
X3343701D3*
X3243701D3*
X3143701D3*
D36*
X3493701Y4056496D3*
X3593701D3*
X3693701D3*
D33*
X2893701Y3437992D3*
X1794488D3*
X2007327Y1916098D3*
X1843701D3*
X2079894Y3137992D3*
X1476756Y3342917D3*
X1316252Y3770787D3*
X1564398D3*
X1634331D3*
X3389957Y3537992D3*
X2234000Y3741574D3*
X1283457Y3237992D3*
X2112689Y3293700D3*
X1283457Y3437992D3*
X2234331Y3493700D3*
X2516614Y3493697D3*
X1283457Y3537992D3*
Y3637992D3*
X2234000Y3693700D3*
X1349047Y4037992D3*
X2067484Y3993700D3*
X2483823Y3937992D3*
X1114646Y3134846D3*
Y2167535D3*
X3343701Y1686382D3*
X2035866D3*
X2043701Y1437992D3*
X1596929Y2670787D3*
X2487996Y1721815D3*
X2997953Y2602563D3*
X1565154Y2924094D3*
Y2770787D3*
X1350433D3*
Y2602051D3*
X2585685Y1484334D3*
X2948500D3*
X1517725Y2703582D3*
X2997953Y1470787D3*
X3030748Y1653586D3*
X3288780D3*
X2003587Y2539960D3*
X1420630Y2693700D3*
X1803583Y3039960D3*
X2123862Y2937992D3*
X2914646Y1437992D3*
X1737992Y3039960D3*
X2372756Y2675708D3*
X2072918Y2947437D3*
X1803583D3*
X2040122Y2085685D3*
Y1790043D3*
X2941260Y3039960D3*
X2343701Y1120787D3*
X2410906Y708153D3*
X2798469Y660283D3*
X2287992Y1087992D3*
X2438347Y1837594D3*
X3643701D3*
X1737992Y2249405D3*
X3191260Y2287996D3*
X2201536Y2437992D3*
X1335355Y2437996D3*
X1047547D3*
Y2926500D3*
M02*
