M48
INCH
T01C0.0191
T02C0.0295
T03C0.0315
T04C0.036
T05C0.0394
T06C0.0433
%
T01
X+028937Y+034380
X+025166Y+034937
X+022343Y+034937
X+022340Y+036937
X+022340Y+037416
X+020675Y+039937
X+024838Y+039380
X+021127Y+032937
X+020799Y+031380
X+020729Y+029474
X+021239Y+029380
X+018036Y+029474
X+018036Y+030400
X+017380Y+030400
X+015652Y+029241
X+015652Y+027708
X+015177Y+027036
X+015969Y+026708
X+014206Y+026937
X+013504Y+027708
X+013504Y+026021
X+013354Y+024380
X+010475Y+024380
X+011146Y+021675
X+017380Y+022494
X+020401Y+020857
X+020073Y+019161
X+020401Y+017900
X+020359Y+016864
X+020437Y+014380
X+022880Y+010880
X+023437Y+011208
X+024109Y+007082
X+027985Y+006603
X+029146Y+014380
X+029485Y+014843
X+029980Y+014708
X+030307Y+016536
X+032888Y+016536
X+033437Y+016864
X+036437Y+018376
X+031913Y+022880
X+029980Y+026026
X+029413Y+030400
X+033900Y+035380
X+023728Y+026757
X+022015Y+024380
X+020036Y+025400
X+018437Y+019161
X+024383Y+018376
X+024880Y+017218
X+025857Y+014843
X+017945Y+034380
X+014768Y+033429
X+012835Y+034380
X+012835Y+035380
X+012835Y+036380
X+013163Y+037708
X+015644Y+037708
X+016343Y+037708
X+013490Y+040380
X+012835Y+032380
X+011146Y+031348
X+010475Y+029265
T02
X+008437Y+006937
X+008937Y+007437
X+009437Y+006937
T03
X+031437Y+005437
X+032437Y+005437
X+033437Y+005437
X+034437Y+005437
X+035437Y+005437
X+036437Y+005437
X+037437Y+005437
X+038437Y+005437
X+038437Y+008437
X+037437Y+008437
X+036437Y+008437
X+035437Y+008437
X+034437Y+008437
X+033437Y+008437
X+032437Y+008437
X+031437Y+008437
X+031437Y+010394
X+032437Y+010394
X+033437Y+010394
X+034437Y+010394
X+035437Y+010394
X+036437Y+010394
X+037437Y+010394
X+038437Y+010394
X+039437Y+010394
X+039437Y+012437
X+040437Y+012437
X+038437Y+012437
X+037437Y+012437
X+036437Y+012437
X+035437Y+012437
X+034437Y+012437
X+033437Y+012437
X+032437Y+012437
X+031437Y+012437
X+032445Y+013937
X+032437Y+015437
X+031437Y+015437
X+033437Y+015437
X+034437Y+015437
X+035437Y+015437
X+036437Y+015437
X+037437Y+015437
X+038437Y+015437
X+039437Y+015437
X+040437Y+015437
X+037445Y+013937
X+037437Y+019437
X+036437Y+019437
X+035437Y+019437
X+034437Y+019437
X+033437Y+019437
X+032437Y+019437
X+031437Y+019437
X+032437Y+020937
X+032437Y+022437
X+031437Y+022437
X+033437Y+022437
X+034437Y+022437
X+035437Y+022437
X+036437Y+022437
X+037437Y+022437
X+038437Y+022437
X+039437Y+022437
X+040437Y+022437
X+040437Y+019437
X+039437Y+019437
X+038437Y+019437
X+037437Y+020937
X+031937Y+026937
X+031937Y+027937
X+031937Y+028937
X+031937Y+029937
X+031937Y+030937
X+031937Y+031937
X+031937Y+032937
X+031937Y+033937
X+031937Y+034937
X+031937Y+035937
X+031937Y+036937
X+031937Y+037937
X+031937Y+038937
X+031937Y+039937
X+031937Y+040937
X+031937Y+041937
X+034150Y+037937
X+034937Y+037937
X+036453Y+037937
X+037437Y+037937
X+028937Y+036937
X+025937Y+036937
X+025937Y+035937
X+025937Y+034937
X+025937Y+033937
X+025937Y+032937
X+025937Y+031937
X+025937Y+030937
X+025937Y+029937
X+025937Y+028937
X+025937Y+027937
X+025937Y+026937
X+022937Y+026937
X+022937Y+027937
X+022937Y+028937
X+022937Y+029937
X+022937Y+030937
X+022937Y+031937
X+021945Y+031937
X+022937Y+032937
X+022937Y+033937
X+022937Y+034937
X+022937Y+035937
X+022937Y+036937
X+022937Y+037937
X+022937Y+038937
X+022937Y+039937
X+022937Y+040937
X+022937Y+041937
X+025937Y+041937
X+025937Y+040937
X+025937Y+039937
X+025937Y+038937
X+025937Y+037937
X+028937Y+031937
X+022937Y+025937
X+022937Y+024937
X+022937Y+023937
X+022937Y+022937
X+021937Y+020437
X+020937Y+020437
X+019937Y+020437
X+018937Y+020437
X+017937Y+020437
X+016937Y+022937
X+016937Y+023937
X+016937Y+024937
X+016937Y+025937
X+016937Y+026937
X+016937Y+027937
X+016937Y+028937
X+016937Y+029937
X+016937Y+030937
X+016937Y+031937
X+016937Y+032937
X+016937Y+033937
X+016937Y+034937
X+016937Y+035937
X+016937Y+036937
X+016937Y+037937
X+016937Y+038937
X+016937Y+039937
X+016937Y+040937
X+016937Y+041937
X+017945Y+031937
X+011937Y+020937
X+006937Y+020937
X+007937Y+015437
X+008437Y+013937
X+007937Y+012437
X+013437Y+013937
X+013937Y+015437
X+013937Y+012437
X+018437Y+012437
X+019437Y+012437
X+020437Y+012437
X+021437Y+012437
X+022437Y+012437
X+023437Y+012437
X+024437Y+012437
X+025437Y+012437
X+026437Y+012437
X+027437Y+012437
X+026437Y+010437
X+025437Y+010437
X+024437Y+010437
X+023437Y+010437
X+022437Y+010437
X+021437Y+010437
X+020437Y+010437
X+019437Y+010437
X+018437Y+010437
X+019437Y+013937
X+019437Y+015437
X+018437Y+015437
X+020437Y+015437
X+021437Y+015437
X+022437Y+015437
X+023437Y+015437
X+024437Y+015437
X+025437Y+015437
X+026437Y+015437
X+027437Y+015437
X+024437Y+013937
T04
X+018437Y+005437
X+019437Y+005437
X+020437Y+005437
X+021437Y+005437
X+022437Y+005437
X+023437Y+005437
X+024437Y+005437
X+025437Y+005437
X+026437Y+005437
X+027437Y+005437
X+027437Y+008437
X+026437Y+008437
X+025437Y+008437
X+024437Y+008437
X+023437Y+008437
X+022437Y+008437
X+021437Y+008437
X+020437Y+008437
X+019437Y+008437
X+018437Y+008437
T05
X+012437Y+037937
X+012437Y+036937
X+012437Y+035937
X+012437Y+034937
X+012437Y+033937
X+012437Y+032937
X+012437Y+031937
X+012437Y+030937
X+012437Y+029937
X+012437Y+028937
X+012437Y+027937
X+012437Y+026937
X+012437Y+025937
X+012437Y+024937
X+006437Y+024937
X+006437Y+025937
X+006437Y+026937
X+006437Y+027937
X+006437Y+028937
X+006437Y+029937
X+006437Y+030937
X+006437Y+031937
X+006437Y+032937
X+006437Y+033937
X+006437Y+034937
X+006437Y+035937
X+006437Y+036937
X+006437Y+037937
T06
X+011878Y+007937
X+011878Y+006165
X+014437Y+006165
X+014437Y+007937
X+034937Y+040565
X+035937Y+040565
X+036937Y+040565
T00
M30
