%TF.GenerationSoftware,Novarm,DipTrace,4.3.0.4*%
%TF.CreationDate,2023-07-19T19:22:05+01:00*%
%FSLAX26Y26*%
%MOIN*%
%TF.FileFunction,Copper,L1,Top*%
%TF.Part,Single*%
%TA.AperFunction,Conductor*%
%ADD13C,0.03937*%
%ADD14C,0.009843*%
%TA.AperFunction,ComponentPad*%
%ADD18R,0.062992X0.062992*%
%ADD19C,0.062992*%
%ADD20C,0.062992*%
%ADD21R,0.051181X0.051181*%
%ADD22C,0.051181*%
%ADD23C,0.07874*%
%ADD24R,0.181102X0.07874*%
%ADD25O,0.165354X0.07874*%
%ADD26O,0.07874X0.165354*%
%ADD27R,0.056693X0.056693*%
%ADD28C,0.056693*%
%ADD29R,0.08X0.08*%
%ADD30C,0.08*%
%ADD31R,0.075X0.07874*%
%ADD32O,0.075X0.07874*%
%TA.AperFunction,ViaPad*%
%ADD33C,0.04*%
G75*
G01*
%LPD*%
X1193701Y2093701D2*
D13*
X1162205Y2125197D1*
Y3139767D1*
Y3712205D1*
X1243701Y3793701D1*
X793701Y1543701D2*
Y1443701D1*
X843701Y1393701D1*
X3143701Y1943701D2*
Y1993701D1*
X3243701Y2093701D1*
X2893701Y3693701D2*
Y3893701D1*
X3193701Y4193701D1*
X3743701Y3793701D2*
Y4006496D1*
X3693701Y4056496D1*
X3143701Y1543701D2*
Y1494488D1*
X3244488Y1393701D1*
X1693701Y3193701D2*
X1794488D1*
X1843701Y1543701D2*
Y1493701D1*
X1943701Y1393701D1*
X3243701Y2093701D2*
X3143701Y2193701D1*
Y2243701D1*
X1193701Y2093701D2*
D14*
X1666098D1*
X1843701Y1916098D1*
X2193701Y2043701D2*
X2293701Y1943701D1*
X3143701D1*
X1693701Y3193701D2*
X1547461D1*
X1493528Y3139767D1*
X1162205D1*
X1794488Y3437992D2*
X2893701D1*
X1843701Y1916098D2*
X2007327D1*
X2079894Y3137992D2*
X1627339D1*
X1583047Y3093701D1*
X1243701D1*
Y3293701D2*
X1427539D1*
X1476756Y3342917D1*
X2385945D1*
X2490870Y3237992D1*
X2810138D1*
X3065846Y3493701D1*
X3193701D1*
X2593701Y3893701D2*
X2637992Y3937992D1*
Y4020276D1*
X2620276Y4037992D1*
X2259547D1*
X2203838Y4093701D1*
X1693701D1*
X1043701D1*
X643701Y3693701D1*
X1564398Y3770787D2*
X1316252D1*
X1693701Y3893701D2*
X2082661D1*
X2138370Y3837992D1*
X2417481D1*
X2517481Y3737992D1*
X2620276D1*
X2637992Y3755708D1*
Y3820276D1*
X2620276Y3837992D1*
X2567126D1*
X2549410Y3855708D1*
Y3949410D1*
X2593701Y3993701D1*
X1634331Y3770787D2*
X1557244Y3693701D1*
X1243701D1*
X2234000Y3741574D2*
X2355710D1*
X2459292Y3637992D1*
X2620275D1*
X2637992Y3620275D1*
Y3555709D1*
X2655709Y3537992D1*
X3389957D1*
X2112689Y3293700D2*
X2056981Y3237992D1*
X1283457D1*
X2293701Y3293701D2*
X2393701Y3193701D1*
X2593701D1*
X2293701Y3393701D2*
X2437763D1*
X2537763Y3293701D1*
X2593701D1*
X2234331Y3493700D2*
X1783563D1*
X1727855Y3437992D1*
X1283457D1*
X2293701Y3493701D2*
X2516614Y3493697D1*
X1283457Y3537992D2*
X1710139D1*
X1765847Y3593701D1*
X2293701D1*
X2349409Y3537992D1*
X2549409D1*
X2593701Y3493701D1*
X2234000Y3693700D2*
X2178292Y3637992D1*
X1283457D1*
X2293701Y3693701D2*
X2393701Y3593701D1*
X2593701D1*
Y3693701D2*
X2455180D1*
X2355180Y3793701D1*
X2293701D1*
X2097228D1*
X2052937Y3837992D1*
X1187441D1*
X843149Y3493701D1*
X643701D1*
X2593701Y3793701D2*
X2513976D1*
X2413976Y3893701D1*
X2293701D1*
X2249409Y3937992D1*
X987992D1*
X643701Y3593701D1*
X2067484Y3993700D2*
X2023192Y4037992D1*
X1349047D1*
X2293701Y3993701D2*
X2428114D1*
X2483823Y3937992D1*
X2293701Y4093701D2*
X2369648D1*
X2513940Y4237992D1*
X2687040D1*
X2704757Y4220275D1*
Y3611420D1*
X2722476Y3593701D1*
X3193701D1*
X1114646Y2167535D2*
Y3134846D1*
X1693701Y2893701D2*
X2224906D1*
X2269985Y2938779D1*
X2538779D1*
X2593701Y2993701D1*
X2035866Y1686382D2*
X3343701D1*
X2043701Y1437992D2*
Y1243701D1*
X2143701D2*
X2188000Y1199401D1*
X3570275D1*
X3587992Y1217118D1*
Y1433957D1*
X3543701Y1478248D1*
Y1543701D1*
X1693701Y2793701D2*
X1737992Y2837992D1*
X2537992D1*
X2593701Y2893701D1*
X2487996Y1721815D2*
X3565586D1*
X3743701Y1543701D1*
X2593701Y2793701D2*
X2525589D1*
X2469885Y2737996D1*
X1669095D1*
X1649410Y2757681D1*
Y2920276D1*
X1667126Y2937992D1*
X1753072D1*
X1770788Y2955708D1*
Y3075983D1*
X1753070Y3093701D1*
X1693701D1*
X1669095Y2737996D2*
X1614646D1*
X1596929Y2720279D1*
Y2670787D1*
X1517725Y2703582D2*
X1583315Y2637992D1*
X2370055D1*
X2405484Y2602563D1*
X2997953D1*
X1565154Y2770787D2*
Y2924094D1*
X1350433Y2602051D2*
Y2770787D1*
X2948500Y1484334D2*
X2585685D1*
X2997953Y1470787D2*
X3115162Y1587996D1*
X3570275D1*
X3587992Y1570279D1*
Y1499410D1*
X3605709Y1481693D1*
X3881693D1*
X3943701Y1543701D1*
X2997953Y2602563D2*
X3102563D1*
X3193701Y2693701D1*
Y2793701D2*
X3237992Y2749410D1*
Y2557676D1*
X3220276Y2539960D1*
X2003587D1*
X3288780Y1653586D2*
X3030748D1*
X2003587Y2539960D2*
X1297441D1*
X1243701Y2593701D1*
X3030748Y1653586D2*
X2653586D1*
X2543701Y1543701D1*
X2443701D2*
X2549409Y1437992D1*
X2914646D1*
X1737992Y3039960D2*
X1438346D1*
X1420630Y3022244D1*
Y2693700D1*
X2123862Y2937992D2*
Y3022244D1*
X2106146Y3039960D1*
X1803583D1*
X2914646Y1437992D2*
X3020949Y1331689D1*
X3455712D1*
X3543701Y1243701D1*
X2143701Y1543701D2*
Y1338846D1*
X2087996Y1283141D1*
Y1199402D1*
X2105713Y1181685D1*
X3681685D1*
X3743701Y1243701D1*
X2372756Y2675708D2*
X2446989D1*
X2473292Y2649405D1*
X2849405D1*
X3193701Y2993701D1*
X1803583Y2947437D2*
X2072918D1*
X1693701Y2993701D2*
X1471145D1*
X1453425Y2975980D1*
Y2678621D1*
X1435709Y2660905D1*
X1400946D1*
X1383229Y2678622D1*
Y2875984D1*
X1365512Y2893701D1*
X1243701D1*
X2040122Y2085685D2*
Y1790043D1*
X2941260Y3039960D2*
X2995000Y3093701D1*
X3193701D1*
X2040122Y1790043D2*
X4087992D1*
X4105709Y1772326D1*
Y1199410D1*
X4087992Y1181693D1*
X4005708D1*
X3943701Y1243701D1*
X3645276Y3793701D2*
D13*
Y4004921D1*
X3593701Y4056496D1*
X3743701Y1943701D2*
X4043701D1*
X1393701Y1243701D2*
Y1343701D1*
X1343701Y1393701D1*
X2593701Y4193701D2*
Y4093701D1*
X693701Y2093701D2*
Y2443701D1*
X643701Y2493701D1*
X2893701Y3193701D2*
Y2993701D1*
X2593701Y2693701D1*
X4043701Y1243701D2*
X3893701Y1393701D1*
X3744488D1*
X2743701Y1243701D2*
X2593701Y1393701D1*
X2443701D1*
X3593701Y4056496D2*
Y3893701D1*
X3493701Y3793701D1*
X4043701Y1943701D2*
X3893701Y2093701D1*
X3743701D1*
X3193701Y4093701D2*
Y3993701D1*
X3593701Y4056496D2*
Y4088484D1*
X3488484Y4193701D1*
X3293701D1*
X3193701Y4093701D1*
X3893701Y2093701D2*
X4043701Y2243701D1*
X2194488Y3193701D2*
X2293701Y3093701D1*
X643701Y2493701D2*
X493701Y2643701D1*
Y3643701D1*
X643701Y3793701D1*
X1343701Y1393701D2*
D14*
X1506825D1*
X1718837Y1605712D1*
X1970280D1*
X1987996Y1587996D1*
Y1501378D1*
X2007681Y1481693D1*
X1987996Y1462008D1*
Y1187996D1*
X1843701Y1043701D1*
X2443701Y1393701D2*
X2205708D1*
X2187992Y1411417D1*
Y1570280D1*
X2170276Y1587996D1*
X2105709D1*
X2087992Y1570279D1*
Y1499409D1*
X2070276Y1481693D1*
X2007681D1*
X1187795Y616535D2*
X1020866D1*
X943701Y693701D1*
X3443701Y543701D2*
X3543701D1*
X3643701D1*
X3543701Y1039370D2*
X3646917Y1142586D1*
X3742586D1*
X3843701Y1243701D1*
X3414961Y3793701D2*
D13*
Y3977756D1*
X3493701Y4056496D1*
X3414961Y3793701D2*
D14*
X3479134Y3729528D1*
X4082677D1*
X2343701Y1120787D2*
X2816186D1*
X2833902Y1103071D1*
Y506654D1*
X2816185Y488937D1*
X2098464D1*
X2043701Y543701D1*
X2410906Y708153D2*
X2308153D1*
X2143701Y543701D1*
X2287992Y1087992D2*
X2780752D1*
X2798469Y1070275D1*
Y660283D1*
X2543701Y543701D2*
Y723233D1*
X2525985Y740949D1*
X1790905D1*
X1773189Y758665D1*
Y1570279D1*
X1790906Y1587996D1*
X1899405D1*
X1943701Y1543701D1*
X1243701Y2993701D2*
X1194685Y2944685D1*
Y2355709D1*
X1212402Y2337992D1*
X3849409D1*
X3943701Y2243701D1*
X1693701Y2293701D2*
Y2136197D1*
X1711418Y2118480D1*
X2120279D1*
X2137996Y2100763D1*
Y1917126D1*
X2155713Y1899409D1*
X3499409D1*
X3543701Y1943701D1*
X3643701Y1837594D2*
X2438347D1*
X3191260Y2287996D2*
X2948701D1*
X2910110Y2249405D1*
X1737992D1*
X1047547Y2926500D2*
Y2437996D1*
X2201536Y2437992D2*
X3255709D1*
X3273425Y2455708D1*
Y3313977D1*
X3193701Y3393701D1*
X1335355Y2437996D2*
X2201536Y2437992D1*
X1443701Y793701D2*
X1187795D1*
X861417D1*
X843701Y775984D1*
Y693701D1*
X2293701Y2393701D2*
X3405035D1*
X3422752Y2411417D1*
Y3601712D1*
X3237992Y3786472D1*
Y3849410D1*
X3193701Y3893701D1*
D33*
X2893701Y3437992D3*
X1794488D3*
X2007327Y1916098D3*
X1843701D3*
X2079894Y3137992D3*
X1476756Y3342917D3*
X1316252Y3770787D3*
X1564398D3*
X1634331D3*
X3389957Y3537992D3*
X2234000Y3741574D3*
X1283457Y3237992D3*
X2112689Y3293700D3*
X1283457Y3437992D3*
X2234331Y3493700D3*
X2516614Y3493697D3*
X1283457Y3537992D3*
Y3637992D3*
X2234000Y3693700D3*
X1349047Y4037992D3*
X2067484Y3993700D3*
X2483823Y3937992D3*
X1114646Y3134846D3*
Y2167535D3*
X3343701Y1686382D3*
X2035866D3*
X2043701Y1437992D3*
X1596929Y2670787D3*
X2487996Y1721815D3*
X2997953Y2602563D3*
X1565154Y2924094D3*
Y2770787D3*
X1350433D3*
Y2602051D3*
X2585685Y1484334D3*
X2948500D3*
X1517725Y2703582D3*
X2997953Y1470787D3*
X3030748Y1653586D3*
X3288780D3*
X2003587Y2539960D3*
X1420630Y2693700D3*
X1803583Y3039960D3*
X2123862Y2937992D3*
X2914646Y1437992D3*
X1737992Y3039960D3*
X2372756Y2675708D3*
X2072918Y2947437D3*
X1803583D3*
X2040122Y2085685D3*
Y1790043D3*
X2941260Y3039960D3*
X2343701Y1120787D3*
X2410906Y708153D3*
X2798469Y660283D3*
X2287992Y1087992D3*
X2438347Y1837594D3*
X3643701D3*
X1737992Y2249405D3*
X3191260Y2287996D3*
X2201536Y2437992D3*
X1335355Y2437996D3*
X1047547D3*
Y2926500D3*
D18*
X3143701Y543701D3*
D19*
X3243701D3*
X3343701D3*
X3443701D3*
X3543701D3*
X3643701D3*
X3743701D3*
X3843701D3*
Y843701D3*
X3743701D3*
X3643701D3*
X3543701D3*
X3443701D3*
X3343701D3*
X3243701D3*
X3143701D3*
D20*
X2893701Y3693701D3*
Y3193701D3*
D21*
X843701Y693701D3*
D22*
X893701Y743701D3*
X943701Y693701D3*
D18*
X2593701Y4193701D3*
D19*
Y4093701D3*
Y3993701D3*
Y3893701D3*
Y3793701D3*
Y3693701D3*
Y3593701D3*
Y3493701D3*
Y3393701D3*
Y3293701D3*
Y3193701D3*
Y3093701D3*
Y2993701D3*
Y2893701D3*
Y2793701D3*
Y2693701D3*
X3193701D3*
Y2793701D3*
Y2893701D3*
Y2993701D3*
Y3093701D3*
Y3193701D3*
Y3293701D3*
Y3393701D3*
Y3493701D3*
Y3593701D3*
Y3693701D3*
Y3793701D3*
Y3893701D3*
Y3993701D3*
Y4093701D3*
Y4193701D3*
D20*
X3743701Y3793701D3*
X3645276D3*
X1794488Y3193701D3*
X2194488D3*
D23*
X1187795Y793701D3*
X1443701D3*
X1187795Y616535D3*
X1443701D3*
D18*
X2193701Y2043701D3*
D19*
X2093701D3*
X1993701D3*
X1893701D3*
X1793701D3*
D20*
X3243701Y2093701D3*
X3743701D3*
D18*
X793701Y1243701D3*
D20*
X1393701D3*
Y1543701D3*
X793701D3*
D18*
X3143701Y1243701D3*
D19*
X3243701D3*
X3343701D3*
X3443701D3*
X3543701D3*
X3643701D3*
X3743701D3*
X3843701D3*
X3943701D3*
X4043701D3*
Y1543701D3*
X3943701D3*
X3843701D3*
X3743701D3*
X3643701D3*
X3543701D3*
X3443701D3*
X3343701D3*
X3243701D3*
X3143701D3*
D24*
X4082677Y3729528D3*
D25*
Y3977559D3*
D26*
X3893701Y3843701D3*
D18*
X1693701Y4193701D3*
D19*
Y4093701D3*
Y3993701D3*
Y3893701D3*
Y3793701D3*
Y3693701D3*
Y3593701D3*
Y3493701D3*
Y3393701D3*
Y3293701D3*
Y3193701D3*
Y3093701D3*
Y2993701D3*
Y2893701D3*
Y2793701D3*
Y2693701D3*
Y2593701D3*
Y2493701D3*
Y2393701D3*
Y2293701D3*
X2293701D3*
Y2393701D3*
Y2493701D3*
Y2593701D3*
Y2693701D3*
Y2793701D3*
Y2893701D3*
Y2993701D3*
Y3093701D3*
Y3193701D3*
Y3293701D3*
Y3393701D3*
Y3493701D3*
Y3593701D3*
Y3693701D3*
Y3793701D3*
Y3893701D3*
Y3993701D3*
Y4093701D3*
Y4193701D3*
D20*
X3244488Y1393701D3*
X3744488D3*
D27*
X643701Y3793701D3*
D28*
Y3693701D3*
Y3593701D3*
Y3493701D3*
Y3393701D3*
Y3293701D3*
Y3193701D3*
Y3093701D3*
Y2993701D3*
Y2893701D3*
Y2793701D3*
Y2693701D3*
Y2593701D3*
Y2493701D3*
X1243701D3*
Y2593701D3*
Y2693701D3*
Y2793701D3*
Y2893701D3*
Y2993701D3*
Y3093701D3*
Y3193701D3*
Y3293701D3*
Y3393701D3*
Y3493701D3*
Y3593701D3*
Y3693701D3*
Y3793701D3*
D20*
X843701Y1393701D3*
X1343701D3*
X1943701D3*
X2443701D3*
X1193701Y2093701D3*
X693701D3*
D18*
X1843701Y1243701D3*
D19*
X1943701D3*
X2043701D3*
X2143701D3*
X2243701D3*
X2343701D3*
X2443701D3*
X2543701D3*
X2643701D3*
X2743701D3*
Y1543701D3*
X2643701D3*
X2543701D3*
X2443701D3*
X2343701D3*
X2243701D3*
X2143701D3*
X2043701D3*
X1943701D3*
X1843701D3*
D18*
X3414961Y3793701D3*
D20*
X3493701D3*
D18*
X3143701Y1039370D3*
D19*
X3243701D3*
X3343701D3*
X3443701D3*
X3543701D3*
X3643701D3*
X3743701D3*
X3843701D3*
X3943701D3*
D29*
X1843701Y543701D3*
D30*
X1943701D3*
X2043701D3*
X2143701D3*
X2243701D3*
X2343701D3*
X2443701D3*
X2543701D3*
X2643701D3*
X2743701D3*
Y843701D3*
X2643701D3*
X2543701D3*
X2443701D3*
X2343701D3*
X2243701D3*
X2143701D3*
X2043701D3*
X1943701D3*
X1843701D3*
D18*
Y1043701D3*
D19*
X1943701D3*
X2043701D3*
X2143701D3*
X2243701D3*
X2343701D3*
X2443701D3*
X2543701D3*
X2643701D3*
D18*
X3143701Y1943701D3*
D19*
X3243701D3*
X3343701D3*
X3443701D3*
X3543701D3*
X3643701D3*
X3743701D3*
X3843701D3*
X3943701D3*
X4043701D3*
Y2243701D3*
X3943701D3*
X3843701D3*
X3743701D3*
X3643701D3*
X3543701D3*
X3443701D3*
X3343701D3*
X3243701D3*
X3143701D3*
D31*
X3493701Y4056496D3*
D32*
X3593701D3*
X3693701D3*
M02*
