%TF.GenerationSoftware,Novarm,DipTrace,4.3.0.4*%
%TF.CreationDate,2023-07-19T22:18:51+01:00*%
%FSLAX26Y26*%
%MOIN*%
%TF.FileFunction,Drawing,Top*%
%TF.Part,Single*%
%ADD10C,0.004724*%
%ADD15C,0.005906*%
%ADD19C,0.003937*%
G75*
G01*
%LPD*%
X4017717Y4143701D2*
D15*
G02X4017717Y4143701I125984J0D01*
G01*
X3090157Y501181D2*
D19*
X3050787Y540551D1*
X3936614Y501181D2*
X3090157D1*
X3050787Y540551D2*
Y886220D1*
X3118701Y613780D2*
X3168701D1*
X3122638D2*
Y667060D1*
X3126575Y613780D2*
Y667060D1*
X3130512Y613780D2*
Y667060D1*
X3134449Y613780D2*
Y667060D1*
X3138386Y613780D2*
Y667060D1*
X3142323Y613780D2*
Y667060D1*
X3146260Y613780D2*
Y667060D1*
X3150197Y613780D2*
Y667060D1*
X3154134Y613780D2*
Y667060D1*
X3158071Y613780D2*
Y667060D1*
X3162008Y613780D2*
Y667060D1*
X3165945Y613780D2*
Y667060D1*
X3168701Y613780D2*
Y773622D1*
X3218701Y613780D2*
X3268701D1*
X3222638D2*
Y667060D1*
X3226575Y613780D2*
Y667060D1*
X3230512Y613780D2*
Y667060D1*
X3234449Y613780D2*
Y667060D1*
X3238386Y613780D2*
Y667060D1*
X3242323Y613780D2*
Y667060D1*
X3246260Y613780D2*
Y667060D1*
X3250197Y613780D2*
Y667060D1*
X3254134Y613780D2*
Y667060D1*
X3258071Y613780D2*
Y667060D1*
X3262008Y613780D2*
Y667060D1*
X3265945Y613780D2*
Y667060D1*
X3268701Y613780D2*
Y773622D1*
X3318701Y613780D2*
X3368701D1*
X3322638D2*
Y667060D1*
X3326575Y613780D2*
Y667060D1*
X3330512Y613780D2*
Y667060D1*
X3334449Y613780D2*
Y667060D1*
X3338386Y613780D2*
Y667060D1*
X3342323Y613780D2*
Y667060D1*
X3346260Y613780D2*
Y667060D1*
X3350197Y613780D2*
Y667060D1*
X3354134Y613780D2*
Y667060D1*
X3358071Y613780D2*
Y667060D1*
X3362008Y613780D2*
Y667060D1*
X3365945Y613780D2*
Y667060D1*
X3368701Y613780D2*
Y773622D1*
X3418701Y613780D2*
X3468701D1*
X3422638D2*
Y667060D1*
X3426575Y613780D2*
Y667060D1*
X3430512Y613780D2*
Y667060D1*
X3434449Y613780D2*
Y667060D1*
X3438386Y613780D2*
Y667060D1*
X3442323Y613780D2*
Y667060D1*
X3446260Y613780D2*
Y667060D1*
X3450197Y613780D2*
Y667060D1*
X3454134Y613780D2*
Y667060D1*
X3458071Y613780D2*
Y667060D1*
X3462008Y613780D2*
Y667060D1*
X3465945Y613780D2*
Y667060D1*
X3468701Y613780D2*
Y773622D1*
X3518701Y613780D2*
X3568701D1*
X3522638D2*
Y667060D1*
X3526575Y613780D2*
Y667060D1*
X3530512Y613780D2*
Y667060D1*
X3534449Y613780D2*
Y667060D1*
X3538386Y613780D2*
Y667060D1*
X3542323Y613780D2*
Y667060D1*
X3546260Y613780D2*
Y667060D1*
X3550197Y613780D2*
Y667060D1*
X3554134Y613780D2*
Y667060D1*
X3558071Y613780D2*
Y667060D1*
X3562008Y613780D2*
Y667060D1*
X3565945Y613780D2*
Y667060D1*
X3568701Y613780D2*
Y773622D1*
X3618701Y613780D2*
X3668701D1*
X3622638D2*
Y667060D1*
X3626575Y613780D2*
Y667060D1*
X3630512Y613780D2*
Y667060D1*
X3634449Y613780D2*
Y667060D1*
X3638386Y613780D2*
Y667060D1*
X3642323Y613780D2*
Y667060D1*
X3646260Y613780D2*
Y667060D1*
X3650197Y613780D2*
Y667060D1*
X3654134Y613780D2*
Y667060D1*
X3658071Y613780D2*
Y667060D1*
X3662008Y613780D2*
Y667060D1*
X3665945Y613780D2*
Y667060D1*
X3668701Y613780D2*
Y773622D1*
X3718701Y613780D2*
X3768701D1*
X3722638D2*
Y667060D1*
X3726575Y613780D2*
Y667060D1*
X3730512Y613780D2*
Y667060D1*
X3734449Y613780D2*
Y667060D1*
X3738386Y613780D2*
Y667060D1*
X3742323Y613780D2*
Y667060D1*
X3746260Y613780D2*
Y667060D1*
X3750197Y613780D2*
Y667060D1*
X3754134Y613780D2*
Y667060D1*
X3758071Y613780D2*
Y667060D1*
X3762008Y613780D2*
Y667060D1*
X3765945Y613780D2*
Y667060D1*
X3768701Y613780D2*
Y773622D1*
X3818701Y613780D2*
X3868701D1*
X3822638D2*
Y667060D1*
X3826575Y613780D2*
Y667060D1*
X3830512Y613780D2*
Y667060D1*
X3834449Y613780D2*
Y667060D1*
X3838386Y613780D2*
Y667060D1*
X3842323Y613780D2*
Y667060D1*
X3846260Y613780D2*
Y667060D1*
X3850197Y613780D2*
Y667060D1*
X3854134Y613780D2*
Y667060D1*
X3858071Y613780D2*
Y667060D1*
X3862008Y613780D2*
Y667060D1*
X3865945Y613780D2*
Y667060D1*
X3868701Y613780D2*
Y773622D1*
X3118701Y667060D2*
X3168701D1*
X3218701D2*
X3268701D1*
X3318701D2*
X3368701D1*
X3418701D2*
X3468701D1*
X3518701D2*
X3568701D1*
X3618701D2*
X3668701D1*
X3718701D2*
X3768701D1*
X3818701D2*
X3868701D1*
X3118701Y773622D2*
Y613780D1*
X3168701Y773622D2*
X3118701D1*
X3218701D2*
Y613780D1*
X3268701Y773622D2*
X3218701D1*
X3318701D2*
Y613780D1*
X3368701Y773622D2*
X3318701D1*
X3418701D2*
Y613780D1*
X3468701Y773622D2*
X3418701D1*
X3518701D2*
Y613780D1*
X3568701Y773622D2*
X3518701D1*
X3618701D2*
Y613780D1*
X3668701Y773622D2*
X3618701D1*
X3718701D2*
Y613780D1*
X3768701Y773622D2*
X3718701D1*
X3818701D2*
Y613780D1*
X3868701Y773622D2*
X3818701D1*
X3050787Y886220D2*
X3936614D1*
Y501181D1*
X2925197Y3703543D2*
X2862205D1*
Y3185433D1*
X2925197D2*
Y3703543D1*
X2862205Y3185433D2*
X2925197D1*
X1013386Y712598D2*
X875591D1*
X943701Y546063D2*
G02X943701Y546063I0J0D01*
G01*
X874660Y712741D2*
G02X874660Y712741I0J0D01*
G01*
X2603740Y4204331D2*
X2643110Y4243701D1*
X2603740Y2643701D2*
Y4204331D1*
X2643110Y4243701D2*
X3183661D1*
Y2643701D1*
X2603740D1*
X3753543Y3762205D2*
Y3825197D1*
X3635433D1*
Y3762205D2*
X3753543D1*
X3635433Y3825197D2*
Y3762205D1*
X1784646Y3225197D2*
Y3162205D1*
X2202756D1*
Y3225197D2*
X1784646D1*
X2202756Y3162205D2*
Y3225197D1*
X1225591Y761811D2*
X1343701D1*
X1225591Y525591D2*
Y761811D1*
X1343701D2*
X1461811D1*
Y525591D1*
X1225591D1*
X1264348Y643701D2*
G02X1264348Y643701I79353J0D01*
G01*
X4017717Y543701D2*
D15*
G02X4017717Y543701I125984J0D01*
G01*
X417717Y4143701D2*
G02X417717Y4143701I125984J0D01*
G01*
X2244488Y1994488D2*
D19*
Y2092913D1*
X1742913D1*
X2143701Y1994488D2*
Y2092913D1*
X1742913Y1994488D2*
X2244488D1*
X1742913Y2092913D2*
Y1994488D1*
X3925197Y2903543D2*
X3862205D1*
Y2385433D1*
X3925197D2*
Y2903543D1*
X3862205Y2385433D2*
X3925197D1*
X536220Y1093701D2*
Y1568110D1*
Y1093701D2*
X1325591D1*
X561811Y1593701D2*
X1325591D1*
X575591Y1133071D2*
Y1540551D1*
Y1133071D2*
X1298031D1*
X589370Y1554331D2*
X1298031D1*
X1311811Y1146850D2*
Y1540551D1*
X1351181Y1568110D2*
Y1119291D1*
X561811Y1593701D2*
G02X561811Y1593701I0J0D01*
G01*
X589370Y1554331D2*
G02X589370Y1554331I0J0D01*
G01*
X1311811Y1540551D2*
G02X1311811Y1540551I0J0D01*
G01*
X1298031Y1133071D2*
G02X1298031Y1133071I0J0D01*
G01*
X1351181Y1568110D2*
G02X1351181Y1568110I0J0D01*
G01*
X1325591Y1093701D2*
G02X1325591Y1093701I0J0D01*
G01*
X3091339Y1193701D2*
X4096063D1*
Y1593701D1*
X3133071Y1268701D2*
X3093701Y1308071D1*
X4093701Y1268701D2*
X3133071D1*
X3093701Y1308071D2*
Y1518701D1*
X4093701D1*
Y1268701D1*
X3091339Y1593701D2*
Y1193701D1*
X4096063Y1593701D2*
X3091339D1*
X3759449Y3240945D2*
X3720079Y3280315D1*
X4283071Y3240945D2*
X3759449D1*
X3720079Y3595276D2*
Y3280315D1*
Y3595276D2*
X4283071D1*
Y3240945D1*
X1643701Y4246063D2*
Y2241339D1*
X2343701D1*
X1703740Y4204331D2*
X1743110Y4243701D1*
X1703740Y2243701D2*
Y4204331D1*
X1743110Y4243701D2*
X2283661D1*
Y2243701D1*
X1703740D1*
X2343701Y4246063D2*
X1643701D1*
X2343701Y2241339D2*
Y4246063D1*
X3234646Y1425197D2*
Y1362205D1*
X3752756D1*
Y1425197D2*
X3234646D1*
X3752756Y1362205D2*
Y1425197D1*
X446850Y4338583D2*
Y4196850D1*
Y4338583D2*
X498031Y4393701D1*
X446850Y4196850D2*
X505906Y4118110D1*
X446850Y4196850D2*
X627953D1*
X492913Y3863780D2*
X531496Y3909449D1*
X492913Y1925197D2*
Y3863780D1*
X498031Y4393701D2*
X576772D1*
X505906Y4118110D2*
X568898D1*
X505906Y3877559D2*
Y4118110D1*
X531496Y3909449D2*
X1394488D1*
X568898Y4118110D2*
Y3909449D1*
X576772Y4393701D2*
X627953Y4338583D1*
X446850D1*
X627953Y4196850D2*
X568898Y4118110D1*
X627953Y4196850D2*
Y4338583D1*
X1394488Y3909449D2*
Y1925197D1*
X492913D1*
X683858Y1375197D2*
Y1312205D1*
X1201969D1*
Y1375197D2*
X683858D1*
X1201969Y1312205D2*
Y1375197D1*
X1933858Y1425197D2*
Y1362205D1*
X2451969D1*
Y1425197D2*
X1933858D1*
X2451969Y1362205D2*
Y1425197D1*
X1203543Y1762205D2*
Y1825197D1*
X685433D1*
Y1762205D2*
X1203543D1*
X685433Y1825197D2*
Y1762205D1*
X1791339Y1193701D2*
X2796063D1*
Y1593701D1*
X1833071Y1268701D2*
X1793701Y1308071D1*
X2793701Y1268701D2*
X1833071D1*
X1793701Y1308071D2*
Y1518701D1*
X2793701D1*
Y1268701D1*
X1791339Y1593701D2*
Y1193701D1*
X2796063Y1593701D2*
X1791339D1*
X3370329Y3836516D2*
X3390014D1*
X3380172Y3846358D2*
Y3826673D1*
X3355906Y3793701D2*
G02X3355906Y3793701I98425J0D01*
G01*
X3092913Y1088583D2*
Y990157D1*
X3994488D1*
X3193701Y1088583D2*
Y990157D1*
X3994488Y1088583D2*
X3092913D1*
X3994488Y990157D2*
Y1088583D1*
X1843701Y493701D2*
X2793701D1*
Y893701D1*
X1793701Y543701D2*
X1843701Y493701D1*
X1793701Y543701D2*
Y893701D1*
X2793701D1*
X1792913Y1092913D2*
Y994488D1*
X2694488D1*
X1893701Y1092913D2*
Y994488D1*
X2694488Y1092913D2*
X1792913D1*
X2694488Y994488D2*
Y1092913D1*
X3693701Y3046063D2*
Y2041339D1*
X4093701D1*
X3768701Y3004331D2*
X3808071Y3043701D1*
X3768701Y2043701D2*
Y3004331D1*
X3808071Y3043701D2*
X4018701D1*
Y2043701D1*
X3768701D1*
X4093701Y3046063D2*
X3693701D1*
X4093701Y2041339D2*
Y3046063D1*
X417717Y543701D2*
D15*
G02X417717Y543701I125984J0D01*
G01*
X3396850Y4180512D2*
D19*
Y4007283D1*
Y4130512D2*
X3790551D1*
X3396850Y4007283D2*
X3790551D1*
X3520866Y4180512D2*
Y4130512D1*
X3666535Y4180512D2*
Y4130512D1*
X3790551Y4180512D2*
X3396850D1*
X3790551Y4007283D2*
Y4180512D1*
X3077913Y740132D2*
D10*
X3079339Y737280D1*
X3082224Y734395D1*
X3086535Y732969D1*
X3089387D1*
X3093698Y734395D1*
X3096550Y737280D1*
X3098009Y740132D1*
Y744443D1*
X3096550Y747328D1*
X3093698Y750180D1*
X3089387Y751639D1*
X3086535D1*
X3082224Y750180D1*
X3079339Y747328D1*
X3077913Y744443D1*
Y740132D1*
Y761088D2*
X3098009D1*
X3083650D2*
X3079339Y765399D1*
X3077913Y768284D1*
Y772562D1*
X3079339Y775447D1*
X3083650Y776873D1*
X3098009D1*
M02*
