%TF.GenerationSoftware,Novarm,DipTrace,4.3.0.4*%
%TF.CreationDate,2023-07-19T22:18:52+01:00*%
%FSLAX26Y26*%
%MOIN*%
%TF.FileFunction,Soldermask,Top*%
%TF.Part,Single*%
%ADD45O,0.078937X0.082677*%
%ADD47R,0.078937X0.082677*%
%ADD49C,0.083937*%
%ADD51R,0.083937X0.083937*%
%ADD53C,0.06063*%
%ADD55R,0.06063X0.06063*%
%ADD57O,0.169291X0.082677*%
%ADD59O,0.082677X0.169291*%
%ADD61R,0.082677X0.185039*%
%ADD63C,0.082677*%
%ADD65C,0.055118*%
%ADD67R,0.055118X0.055118*%
%ADD69C,0.066929*%
%ADD71C,0.066929*%
%ADD73R,0.066929X0.066929*%
%ADD75C,0.255906*%
G75*
G01*
%LPD*%
D75*
X4143701Y4143701D3*
D73*
X3143701Y543701D3*
D71*
X3243701D3*
X3343701D3*
X3443701D3*
X3543701D3*
X3643701D3*
X3743701D3*
X3843701D3*
Y843701D3*
X3743701D3*
X3643701D3*
X3543701D3*
X3443701D3*
X3343701D3*
X3243701D3*
X3143701D3*
D69*
X2893701Y3693701D3*
Y3193701D3*
D67*
X993701Y643701D3*
D65*
X943701Y593701D3*
X893701Y643701D3*
D73*
X2593701Y4193701D3*
D71*
Y4093701D3*
Y3993701D3*
Y3893701D3*
Y3793701D3*
Y3693701D3*
Y3593701D3*
Y3493701D3*
Y3393701D3*
Y3293701D3*
Y3193701D3*
Y3093701D3*
Y2993701D3*
Y2893701D3*
Y2793701D3*
Y2693701D3*
X3193701D3*
Y2793701D3*
Y2893701D3*
Y2993701D3*
Y3093701D3*
Y3193701D3*
Y3293701D3*
Y3393701D3*
Y3493701D3*
Y3593701D3*
Y3693701D3*
Y3793701D3*
Y3893701D3*
Y3993701D3*
Y4093701D3*
Y4193701D3*
D69*
X3743701Y3793701D3*
X3645276D3*
X1794488Y3193701D3*
X2194488D3*
D63*
X1215748Y732283D3*
X1471654D3*
X1215748Y555118D3*
X1471654D3*
D75*
X4143701Y543701D3*
X543701Y4143701D3*
D73*
X2193701Y2043701D3*
D71*
X2093701D3*
X1993701D3*
X1893701D3*
X1793701D3*
D69*
X3893701Y2893701D3*
Y2393701D3*
D73*
X643701Y1193701D3*
D69*
X1243701D3*
Y1493701D3*
X643701D3*
D73*
X3143701Y1243701D3*
D71*
X3243701D3*
X3343701D3*
X3443701D3*
X3543701D3*
X3643701D3*
X3743701D3*
X3843701D3*
X3943701D3*
X4043701D3*
Y1543701D3*
X3943701D3*
X3843701D3*
X3743701D3*
X3643701D3*
X3543701D3*
X3443701D3*
X3343701D3*
X3243701D3*
X3143701D3*
D61*
X3743701Y3418110D3*
D59*
X3991732D3*
D57*
X3857874Y3607087D3*
D73*
X1693701Y4193701D3*
D71*
Y4093701D3*
Y3993701D3*
Y3893701D3*
Y3793701D3*
Y3693701D3*
Y3593701D3*
Y3493701D3*
Y3393701D3*
Y3293701D3*
Y3193701D3*
Y3093701D3*
Y2993701D3*
Y2893701D3*
Y2793701D3*
Y2693701D3*
Y2593701D3*
Y2493701D3*
Y2393701D3*
Y2293701D3*
X2293701D3*
Y2393701D3*
Y2493701D3*
Y2593701D3*
Y2693701D3*
Y2793701D3*
Y2893701D3*
Y2993701D3*
Y3093701D3*
Y3193701D3*
Y3293701D3*
Y3393701D3*
Y3493701D3*
Y3593701D3*
Y3693701D3*
Y3793701D3*
Y3893701D3*
Y3993701D3*
Y4093701D3*
Y4193701D3*
D69*
X3244488Y1393701D3*
X3744488D3*
D55*
X643701Y3493701D3*
D53*
Y3393701D3*
Y3293701D3*
Y3193701D3*
Y3093701D3*
Y2993701D3*
Y2893701D3*
Y2793701D3*
Y2693701D3*
Y2593701D3*
Y2493701D3*
Y2393701D3*
Y2293701D3*
Y2193701D3*
X1243701D3*
Y2293701D3*
Y2393701D3*
Y2493701D3*
Y2593701D3*
Y2693701D3*
Y2793701D3*
Y2893701D3*
Y2993701D3*
Y3093701D3*
Y3193701D3*
Y3293701D3*
Y3393701D3*
Y3493701D3*
D69*
X693701Y1343701D3*
X1193701D3*
X1943701Y1393701D3*
X2443701D3*
X1193701Y1793701D3*
X693701D3*
D73*
X1843701Y1243701D3*
D71*
X1943701D3*
X2043701D3*
X2143701D3*
X2243701D3*
X2343701D3*
X2443701D3*
X2543701D3*
X2643701D3*
X2743701D3*
Y1543701D3*
X2643701D3*
X2543701D3*
X2443701D3*
X2343701D3*
X2243701D3*
X2143701D3*
X2043701D3*
X1943701D3*
X1843701D3*
D73*
X3414961Y3793701D3*
D69*
X3493701D3*
D73*
X3143701Y1039370D3*
D71*
X3243701D3*
X3343701D3*
X3443701D3*
X3543701D3*
X3643701D3*
X3743701D3*
X3843701D3*
X3943701D3*
D51*
X1843701Y543701D3*
D49*
X1943701D3*
X2043701D3*
X2143701D3*
X2243701D3*
X2343701D3*
X2443701D3*
X2543701D3*
X2643701D3*
X2743701D3*
Y843701D3*
X2643701D3*
X2543701D3*
X2443701D3*
X2343701D3*
X2243701D3*
X2143701D3*
X2043701D3*
X1943701D3*
X1843701D3*
D73*
Y1043701D3*
D71*
X1943701D3*
X2043701D3*
X2143701D3*
X2243701D3*
X2343701D3*
X2443701D3*
X2543701D3*
X2643701D3*
D73*
X3743701Y2993701D3*
D71*
Y2893701D3*
Y2793701D3*
Y2693701D3*
Y2593701D3*
Y2493701D3*
Y2393701D3*
Y2293701D3*
Y2193701D3*
Y2093701D3*
X4043701D3*
Y2193701D3*
Y2293701D3*
Y2393701D3*
Y2493701D3*
Y2593701D3*
Y2693701D3*
Y2793701D3*
Y2893701D3*
Y2993701D3*
D75*
X543701Y543701D3*
D47*
X3493701Y4056496D3*
D45*
X3593701D3*
X3693701D3*
M02*
